<?xml version="1.0" encoding="UTF-8"?>
<svg xmlns="http://www.w3.org/2000/svg" viewBox="105 290 365 75">
  <defs>
    <style>
      .st0 { fill: #e8343a; }
      .st1 { fill: #1a1a1a; }
      .st2 { fill: #b3b3b3; }
      .st3 { fill: #f18c27; }
    </style>
  </defs>
  <g>
    <path class="st1" d="M241.74,338.84s1.21-2.1,1.21-2.1l2.31-2.65-.77-.02h-3.06l-.08.09-1.75,1.88-1.38,2.35-.89,2.62c-.22.92-.33,1.88-.33,2.83s.13,1.98.4,3.04l1.02,2.98,1.47,2.69c.55.8,1.12,1.38,1.67,1.73l.09.05,3.58.04-2-2.58-1.25-2.42s-.82-2.7-.82-2.7c-.21-.92-.31-1.88-.31-2.84,0-.01.19-2.67.19-2.67.15-.82.39-1.6.72-2.32Z"/>
    <path class="st1" d="M266.29,345.47h-19.77v3.57l5.04-.25h4.46s.14.04.18.04c0,0-.01.03-.01.05v7.43h3.98l-.18-1.8s-.05-1.95-.05-1.95v-3.68c0-.07.03-.08.05-.1h9.55v-3.44h-.37s-2.86.11-2.86.11Z"/>
    <path class="st1" d="M255.15,339.29l-2.48,1.3-3.8,1.45.28.39,1.72,2.21.22-.04c.58-.11,1.64-.47,3.23-1.08,1.57-.61,2.96-1.36,4.15-2.24,0,0,0,0,0,0,1.62,1.24,3.77,2.38,6.42,3.4l.23.09,2.25-2.55-.49-.18c-1.45-.53-2.65-1.1-3.56-1.71l-1.86-1.44c.04-.07,1.51-2.26,1.51-2.26.36-.71.63-1.7.78-2.95l.05-.4h-7.83l-4.93-.17v.37s-.01,3.17-.01,3.17h7.13c-.2.23-.91,1.03-.91,1.03-.46.48-1.16,1.03-2.08,1.61Z"/>
    <path class="st1" d="M277.9,338.47l-1.42-2.4c-.55-.74-1.16-1.39-1.8-1.92l-.1-.08h-3.78l2.32,2.67s1.2,2.09,1.2,2.09c.33.73.57,1.51.72,2.33l.19,2.66c0,.95-.1,1.87-.28,2.76l-.76,2.58s-1.25,2.51-1.25,2.51l-2.02,2.67.69.03h2.78l.09-.05c.56-.35,1.12-.93,1.7-1.76l1.53-2.76,1.01-2.98c.25-1.05.38-2.05.38-2.97s-.11-1.86-.31-2.78l-.88-2.58Z"/>
    <path class="st1" d="M300.63,344.99l.26.17,2.56-2.87-.39-.22c-1.9-1.06-3.31-2.15-4.2-3.22-1.09-1.32-1.37-1.96-1.41-2.27l-.03-.2s.25-2.28.25-2.28l-.12-3.28h-.34s-4.34,0-4.34,0l.12.45c.32,1.13.41,2.22.27,3.23-.13,1.02-.47,2-.99,2.93-.57,1.01-1.35,1.96-2.33,2.84-.98.89-2.18,1.72-3.54,2.46l-.42.23,2.68,2.73.23-.12c.92-.46,1.99-1.17,3.17-2.1,1.15-.91,2.15-1.84,3-2.78,1.25,1.23,3.06,2.64,5.55,4.29Z"/>
    <path class="st1" d="M302.04,347.51c-2.03,0-3.79.66-5.23,1.97-1.46,1.32-2.2,2.95-2.2,4.85s.74,3.46,2.2,4.8c1.45,1.33,3.21,2,5.23,2s3.82-.67,5.25-2c1.45-1.33,2.18-2.95,2.18-4.79s-.73-3.53-2.18-4.85c-1.43-1.31-3.21-1.98-5.25-1.98ZM304.48,356.47c-.68.62-1.48.92-2.44.92s-1.76-.3-2.44-.92c-.68-.61-1-1.32-1-2.17s.33-1.57,1-2.19c.69-.63,1.48-.94,2.44-.94s1.76.31,2.44.94c.67.62,1,1.34,1,2.19s-.33,1.56-1,2.17Z"/>
    <path class="st1" d="M305.13,338.71s0,0,0,.01c0,.02,0,.07,0,.07v9.31h4.2l-.2-1.89s-.05-2.23-.05-2.23v-13.97h-4.1l.16,4.09v.64c0,.12,0,.22,0,.25-.02,0-.06,0-.06,0h-4.45v3.7h4.45s.06.02.07.02Z"/>
    <path class="st1" d="M328,344.52c-1.11-1.07-1.28-1.6-1.28-1.82,0-.07-.02-.17-.02-.18,0,0,.03-.05.03-.05.5-.9.89-1.94,1.17-3.1.25-1.07.38-2.23.38-3.47,0-.11-.01-.67-.01-.67h-6.5l-4.94-.19v.37s0,3.38,0,3.38h6.9c-.24.82-.59,1.67-1.03,2.43l-1.48,2.14c-.92,1.13-1.92,2.09-2.97,2.85l-3.22,2.04.34.33,2.54,2.2,2.71-1.67c1.23-.76,2.41-1.77,3.52-2.98,1.15,1.08,2.18,1.93,3.11,2.49,0,0,2.42,1.47,2.42,1.47l.2-.23,2.21-2.58-.39-.21c-1.55-.83-2.79-1.69-3.69-2.56Z"/>
    <polygon class="st1" points="337.42 349.98 337.42 332.42 337.07 332.42 333.14 332.42 333.4 338.39 333.4 354.14 337.68 354.14 337.48 352.23 337.42 349.98"/>
    <path class="st1" d="M370.56,342.47s-.17-.02-.23-.02c0-.05-.01-.12-.01-.12v-12.27h-10.84l-4.79-.15v.37s0,3.38,0,3.38h11.48s.05,0,.1.01c0,.04,0,.1,0,.1v8.57s-.03.13-.03.14c0-.02-.18,0-.18,0h-3.52s-.09-.01-.13-.02c0-.04-.01-.09-.01-.09v-6.04h-4.29l.27,3.98v2.03s-.03.13-.03.15c0-.03-.18,0-.18,0h-8.21v3.9l5.66-.3h19.58v-3.71l-3.52.12h-1.1Z"/>
    <path class="st1" d="M362.56,347.24c-2.07,0-3.87.68-5.34,2.03-1.48,1.36-2.23,3-2.23,4.9s.75,3.55,2.23,4.9c1.47,1.35,3.27,2.03,5.34,2.03s3.87-.68,5.34-2.03c1.48-1.36,2.23-3.01,2.23-4.9s-.75-3.55-2.23-4.9c-1.47-1.35-3.27-2.03-5.34-2.03ZM365.06,356.4c-.7.63-1.52.94-2.5.94s-1.8-.31-2.5-.94c-.69-.62-1.02-1.35-1.02-2.22s.33-1.6,1.02-2.22c.7-.63,1.51-.94,2.5-.94s1.8.31,2.5.94c.69.62,1.02,1.35,1.02,2.22s-.33,1.6-1.02,2.23Z"/>
    <path class="st1" d="M393.38,348.87s-.08,0-.13-.01c0-.03,0-.06,0-.06v-3.95h-4.2c.87-.45,1.69-.95,2.42-1.49,0,0,0,0,0,0,.03.01.05.03.05.03,1.76,1.35,4.13,2.6,7.04,3.72l.23.09,2.44-2.75-.5-.18c-1.6-.56-2.92-1.18-3.92-1.86l-2.06-1.6s0-.02-.01-.04c.72-.9,1.29-1.73,1.67-2.49.4-.78.69-1.87.85-3.23l.05-.4h-8.58l-5.39-.19v.37s-.01,3.45-.01,3.45h7.89c-.12.13-1.2,1.28-1.2,1.28-.58.59-1.46,1.24-2.61,1.93l-2.57,1.29s-3.85,1.47-3.85,1.47l.28.39,1.87,2.41.22-.04c.64-.12,1.8-.51,3.54-1.19.68-.26,1.32-.56,1.93-.87l.08.33c.16.68.25,1.65.28,2.88v.63s-.02.02-.02.02c0,0-.23.05-.23.05h-10.56v3.75l6.22-.26h19.16v-3.6l-3.52.12h-6.86Z"/>
    <path class="st1" d="M413.34,335.19l-4.79-.31v.38s-.01,3.52-.01,3.52h8.28s.15.02.16.03c0,.03.05.31.05.31-.02,0-.62,2.21-.62,2.21l-.96,1.91c-.89,1.4-1.99,2.52-3.25,3.34l-4.17,2.37.38.34,2.47,2.01.19-.07c1.33-.48,2.74-1.24,4.19-2.25,1.47-1.02,2.75-2.39,3.81-4.09.77-1.18,1.4-2.57,1.85-4.12.46-1.56.67-3.32.62-5.25v-.35h-8.21Z"/>
    <polygon class="st1" points="429.59 349.77 429.59 332.42 429.23 332.42 425.16 332.42 425.53 338.79 425.53 354.14 429.83 354.14 429.64 352.03 429.59 349.77"/>
    <path class="st1" d="M449.96,347h10.5v-3.75l-.38.02-3.14.14h-21.69v3.93l5.97-.34h4.65c0,.07,0,.14,0,.14v.96s0,.07,0,.14c-.17,0-1.2,0-1.2,0l-4.79-.15v.37s0,3.38,0,3.38h11.87s.08.02.13.03c0,.01-.02.03-.02.05v.86c-.06,0-.14.01-.14.01h-11.84v8h12.62l3.37.16v-.37s0-3.34,0-3.34h-11.84s-.08,0-.14-.02c0-.1,0-.73,0-.73,0,0,0-.05,0-.1.05,0,.1,0,.1,0h11.87v-8.14h-5.94v-1.14s.01-.07.02-.11Z"/>
    <path class="st1" d="M440.43,342.44c3.48-1.75,5.96-3.45,7.39-5.06,0,0,0,0,.01,0,1.53,1.75,4.24,3.48,8.08,5.17l.24.11,2.45-2.9-.47-.18c-1.28-.49-2.36-1-3.21-1.52l-2.19-1.58c-.69-.59-1.22-1.18-1.59-1.76l-.96-1.62s0-.29,0-.29c0,.03.16-1.56.16-1.56,0,0-.23-2.39-.23-2.39l-.32.03h-3.99l.06.46.16,1.31s-.11,1.11-.11,1.11c0-.03-.72,1.91-.72,1.91-.34.76-.98,1.59-1.91,2.48,0,0-2.17,1.68-2.17,1.68-.87.57-1.93,1.12-3.17,1.66l-.47.2,2.71,2.84.23-.12Z"/>
  </g>
  <path class="st0" d="M154.84,354.49c1.15.11,2.29.16,3.44.16,6.95,0,12.41-1.55,16.38-4.65,3.97-3.1,5.96-6.58,5.96-10.44,0-2.99-1.03-5.66-3.09-8.01-2.06-2.35-4.55-4.45-7.48-6.29l-8.27-5.19c-1.31-.84-2.29-1.62-2.95-2.34-1.15-1.28-1.73-2.74-1.73-4.39s.56-3.05,1.68-4.39c1.68-2.05,4.36-3.08,8.04-3.08,4.3,0,7.57,1.28,9.81,3.83,1.43,1.62,2.35,3.55,2.76,5.8l.33,2.38,2.52.28,3.88-14.68h-2.85c-.44.53-.95.98-1.54,1.33-.59.36-1.45.53-2.57.53-.43,0-.93-.04-1.5-.12-.56-.08-1.1-.18-1.63-.3l-2.43-.61c-.91-.25-1.95-.45-3.13-.61-1.81-.25-3.57-.37-5.28-.37-6.17,0-10.98,1.38-14.42,4.14-3.44,2.76-5.16,6.1-5.16,10.02,0,4.18,3.91,8.71,11.73,13.6,7.82,4.7,11.73,8.6,11.73,11.68,0,2.46-1.05,4.63-3.15,6.5-2.11,1.87-5.07,2.8-8.9,2.8-2.14,0-4.13-.33-5.94-.98,1.13,1.18,2.39,2.31,3.77,3.39Z"/>
  <path class="st2" d="M198.66,338.65l-.85,2.44c1.67,4.21,1.7,8.47-.29,12.18-5.01,9.31-20.81,11.52-35.32,4.95-3.1-1.4-5.88-3.09-8.3-4.97-1.38-1.07-2.64-2.21-3.77-3.39-6.17-6.43-8.46-14.19-5.14-20.38.66-1.26,1.55-2.35,2.58-3.34-3.35,1.53-5.98,3.72-7.52,6.61-.73,1.35-1.19,2.78-1.39,4.26-.61,4.35.92,9.18,4.18,13.84,4.25,6.08,11.41,11.9,20.55,16.03,18.52,8.39,38.1,6.69,43.73-3.77,3.84-7.16.16-16.55-8.46-24.46Z"/>
  <g>
    <path class="st3" d="M238.14,307.9v-.11l-.12-.03s-.02.07-.04.09c-.27-.08-.53-.15-.76-.02-.1-.07-.2.01-.31-.03v-.02c-.35.05-.71.08-1.07.05-.09-.02-.04-.07-.13.02-.06-.2-.26-.02-.38-.11-.14.18-.28-.05-.41-.07.05-.03.02-.08.05-.11.08.02.17-.04.26-.05.05,0,.05.07.08.11.11-.04.25-.1.39-.11h-.13c-.19-.14-.47.07-.66-.16.05-.1.13.02.19-.02.1-.2.25.1.31-.09h-.05s-.07-.07-.01-.11c.12-.04.12,0,.2-.07.05.02-.05.07,0,.07l.08-.05s-.07-.11-.09-.08c.09-.1.16-.17.28-.11,0-.03,0-.06-.03-.07l-.02.02c-.05-.02-.13.04-.17-.05l.06-.07c-.06.03-.22-.06-.29,0-.08-.21-.3-.02-.36-.09l.02.03-.11.05s-.05-.04-.04-.07l-.62-.02c-.11.12-.17-.06-.29,0l.05.07c-.09.05-.16.01-.24,0-.31.19-.57-.16-.91.03v.04s.05,0,.05.03l-.08.05c-.17-.15-.39-.09-.58-.14l.05.05c-.16.05-.35,0-.52.02-.13.02-.23,0-.36.08-.13-.1-.45-.06-.51-.3.05.01.08-.1.13-.04.04-.1.19-.05.27-.03.04,0,.08-.08.11-.02v-.05h.02s.02.02.02.05c.13.02.3.06.4.05l-.02-.08c-.09.05-.29.04-.26-.07-.14.03-.3-.07-.44.03-.04-.05-.17-.04-.12-.14-.04-.06-.08.02-.12.03-.05-.05-.06-.13-.06-.16l-.04.05-.11-.11s.02-.03.04-.03l-.27-.13c-.05.07-.17.06-.23,0l.04.05c-.11.04-.23-.09-.32.06-.04-.06-.07-.12-.07-.16.07.01,0-.06.03-.09-.02,0-.05.01-.05-.02l.02-.02-.13.04v-.02s.04-.15.11-.13c.05-.08.12.03.15.07l.04-.07c.05-.02.21-.08.21.04.15-.09.33-.06.53-.07.09-.03.06-.13.15-.16.02.03.05.06.04.09l.02-.13-.23-.09c.05-.07.06-.12.14-.13h-.07c-.14.15-.33-.11-.46,0-.04-.02-.12-.06-.09-.14.03-.07.09-.06.14-.08,0-.02,0-.04-.01-.06l1.7-.32c.1.02.22.05.35-.04-.05,0-.11,0-.17,0l3.57-.68h0l.15-.03h0s.06,0,.08.03c.01-.02.02-.03.03-.05l1.51-.29c.21,0,.42.01.65.02.14.04.25,0,.35-.03h-.14c-.14-.08-.31-.06-.48-.07l.3-.06h-1.75s0,0,0,0h-.15c-.46,0-.92-.12-1.32,0v-.07l-.04.05c-.22-.05-.45-.04-.64-.07-.11-.08-.16.07-.24.03l.02-.03c-.27-.09-.45.09-.72.03.09-.02.08.02.09.07h-.58s-.03,0-.04,0c-.05,0-.11-.04-.11-.11-.25-.02-.47.06-.7,0v-.02h-.24c-.13-.08-.34.04-.5,0l.02.08s-.05,0-.06-.02c-.03-.07-.11-.14-.17-.11-.38-.05-.73-.02-1.08.02-.24-.1-.48.1-.7,0-.07.12-.17-.06-.24.07-.16-.1-.3,0-.51-.04-1.02-.1-1.92,0-2.95.04l-.04-.04-.04.04-.32-.02v-.06c-.14.17-.31-.03-.45.06-.24-.04-.54,0-.8.02-.06.02-.11.07-.17-.02-.12.11-.17-.11-.28-.06-.27.11-.53.07-.76,0-.05.08-.15-.01-.19-.07-.01.05-.04.18-.13.15-.04,0-.04-.03-.04-.07-.02,0-.06.02-.08-.02l-.04.05c-.05,0-.17.06-.2-.05-.15.13-.38-.08-.53.08-.21-.41-.52.27-.71-.11-.14.2-.28-.06-.46.09-.06.3-.21-.1-.3.09-.03-.05-.1-.07-.08-.14-.16-.14-.36.09-.55-.02,0,.11-.09.05-.19.05-.08.14-.21.02-.34.08,0-.08-.09-.16-.17-.13-.21.22-.49-.26-.74-.03-.16-.08-.24.17-.39.03-.19.05-.39.15-.57.16-.14.03-.17-.13-.23-.19-.21.02-.47.17-.62.05-.09.25-.23-.08-.32.03-.07,0-.02.15-.11.13-.03-.02,0-.07-.02-.09-.05,0-.06.09-.11.09-.1-.31-.25.14-.4-.05-.15,0-.27-.02-.4.05h-.49s0,0,0,0c0,0,0,0,0,0h-.27s-.1-.02-.16,0h-.12v-.03s-.07,0-.09.03h-24.6v1.87s6.01,6.04,4.79,10.42l.09-.05-9.41,27.57c-1.06,3.05-1.7,4.89-1.92,5.51-.39,1.1-.85,2.17-1.36,3.24h0c-4.97,6.99-13.23,2.78-14.64,1.99-3.39-3.1-3.89-7.32-3.89-7.32l-3.69,1.73c1.21,3.12,5.75,6.66,7.09,7.66h-.02c.08.05.16.11.24.16.1.07.17.13.17.13h.02c2.31,1.51,5.74,3.31,9.9,3.31,6.36,0,11.06-1.2,14.12-3.6,3.02-2.4,5.33-5.87,6.92-10.42l1.12-3.2.86-2.44,9.75-27.81c.06,0,.11,0,.12.1.15.08.12-.2.25-.21,0-.02,0-.06-.02-.07l.04-.05c.06.08.22.02.32.07v.05h.03c.07-.09.18.09.25,0,.09-.1.24-.06.38,0,.1-.22.25.06.35-.13.17.1.19-.09.37-.09v.09c.2.13.42-.2.58.07.14.02.18-.22.31-.11.12-.14.2-.22.39-.23.06-.14.15.04.21-.06h.44c.15-.19.23.08.41-.05v-.05c.09.03.23.03.35.09.05-.12.16-.11.24-.05.2-.09.42-.11.62-.06.05-.23.28.06.34-.16.5,0,1.15-.22,1.68-.23.68-.14,1.36-.19,2.02-.23,1.07-.12,2-.28,3.06-.5.13.04.33-.09.44.03l.05-.1c.05-.09.21,0,.26-.06.19.04.41-.12.6-.03.02.22.21,0,.3.03.12-.06.36-.09.53-.07.18-.13.35.07.5-.07.31,0,.56-.18.83-.08v-.05s.05-.05.08-.05c.03,0,.04.04.04.07.05-.03.17,0,.17-.09.06.02.12-.05.19,0,.2-.03.42-.03.61-.09.03,0,.05.04.05.06.11-.06.21-.26.35-.08.08-.07.18-.08.11-.21.06.06.2,0,.28.05,0,0-.02.02-.02.05.22-.18.48.09.68-.16.1.13-.09.12-.11.18h.09v.03s.02-.07.03-.09c.04,0,.08-.02.09.02.09-.12.25-.06.32-.18.1.01.13-.02.22.03-.04.07-.13.02-.17.07.08-.07.27.08.32-.07.35.1.68-.1,1.08-.09l.02-.09h-.04c-.07,0-.06-.1-.04-.15.05.05.2-.12.19.07-.02.04-.05.02-.09.02l.25.05s.09-.08.13-.02c.09.04.26.12.28-.08l.04.05-.04.05c.11-.19.21.14.32,0,.04-.05.22-.05.14-.16-.03.08-.09-.08-.1.05-.01,0-.03,0-.04-.02,0-.06.05-.08.08-.09l-.04-.07c.09-.2.25,0,.42-.09.07-.16.2.02.3.03-.02.06-.1.03-.07.11h.03s.05.08,0,.13h.08c.02-.08-.04-.05-.04-.11.05-.01.17-.03.21.05.07-.02.17.05.21-.06.04-.03.09-.08.13-.03l-.04.05h.09v-.05c.17-.06.36-.1.51-.02.16-.12.3.06.45-.07h-.12v-.09c.1.11.1-.13.21-.05l-.02.03c0-.16.3.02.41-.07.07.05.04.14.04.14.03-.08.1-.15.1-.25.04.03.11.05.09.11.09-.01,0,.06.05.09l.1-.07s-.07.02-.1-.03c.04-.02.1-.07.13-.02v.07c.15-.01.22-.08.38-.05l-.02-.02c-.02-.06.04-.06.05-.09.06,0,.06.08.06.14.06.04.12-.08.15.02l.04-.09s.08-.02.09.02v-.09c.12.06,0-.09.12-.04.02-.02.05.02.03.04l.07-.05c-.02-.18.21-.04.3-.12.04,0,.08.07.04.11.09-.05.04.15.05.09.07-.03.14-.13.21-.09.08-.03.12-.14.19-.05.04-.11.25-.06.17-.2h.11s.08.07.06.13h.15l-.02-.11c.09.07.14-.1.17-.11-.03-.13.17-.1.23-.16-.05.11-.03.22-.04.32.07-.07.1-.15.17-.18,0,.01.03.02.02.05,0-.03.01-.06-.02-.07l.05-.06s.06-.02.07.03c0-.05,0-.1.03-.14.12.02.31.02.43.12-.04.05-.11.03-.15.06l.49-.02s-.02-.09.02-.11c.03.01.06-.02.07.02,0,.04-.02.05-.04.08.04-.02.19,0,.27-.05-.05-.05-.15-.02-.17-.1.01-.03.04-.02.06-.02Z"/>
  </g>
</svg>
